<?xml version="1.0" standalone="no"?><svg xmlns="http://www.w3.org/2000/svg" viewBox="0 0 1440 320"><path fill="#F05A28" fill-opacity="1" d="M0,256L10.4,245.3C20.9,235,42,213,63,176C83.5,139,104,85,125,90.7C146.1,96,167,160,188,170.7C208.7,181,230,139,250,106.7C271.3,75,292,53,313,69.3C333.9,85,355,139,376,170.7C396.5,203,417,213,438,234.7C459.1,256,480,288,501,256C521.7,224,543,128,563,101.3C584.3,75,605,117,626,138.7C647,160,668,160,689,170.7C709.6,181,730,203,751,229.3C772.2,256,793,288,814,261.3C834.8,235,856,149,877,149.3C897.4,149,918,235,939,272C960,309,981,299,1002,266.7C1022.6,235,1043,181,1064,186.7C1085.2,192,1106,256,1127,245.3C1147.8,235,1169,149,1190,138.7C1210.4,128,1231,192,1252,192C1273,192,1294,128,1315,112C1335.7,96,1357,128,1377,138.7C1398.3,149,1419,139,1430,133.3L1440,128L1440,0L1429.6,0C1419.1,0,1398,0,1377,0C1356.5,0,1336,0,1315,0C1293.9,0,1273,0,1252,0C1231.3,0,1210,0,1190,0C1168.7,0,1148,0,1127,0C1106.1,0,1085,0,1064,0C1043.5,0,1023,0,1002,0C980.9,0,960,0,939,0C918.3,0,897,0,877,0C855.7,0,835,0,814,0C793,0,772,0,751,0C730.4,0,710,0,689,0C667.8,0,647,0,626,0C605.2,0,584,0,563,0C542.6,0,522,0,501,0C480,0,459,0,438,0C417.4,0,397,0,376,0C354.8,0,334,0,313,0C292.2,0,271,0,250,0C229.6,0,209,0,188,0C167,0,146,0,125,0C104.3,0,83,0,63,0C41.7,0,21,0,10,0L0,0Z"></path></svg>